Coordinates
version=1
nRows=16
nColumns=63
inDegrees=yes

Units are S.I. units (second, meters, Newtons, ...)
If the header above contains a line with 'inDegrees', this indicates whether rotational values are in degrees (yes) or radians (no).

endheader
time	pelvis_tilt	pelvis_list	pelvis_rotation	pelvis_tx	pelvis_ty	pelvis_tz	hip_flexion_r	hip_adduction_r	hip_rotation_r	knee_angle_r	knee_angle_r_beta	ankle_angle_r	subtalar_angle_r	mtp_angle_r	hip_flexion_l	hip_adduction_l	hip_rotation_l	knee_angle_l	knee_angle_l_beta	ankle_angle_l	subtalar_angle_l	mtp_angle_l	L5_S1_Flex_Ext	L5_S1_Lat_Bending	L5_S1_axial_rotation	L4_L5_Flex_Ext	L4_L5_Lat_Bending	L4_L5_axial_rotation	L3_L4_Flex_Ext	L3_L4_Lat_Bending	L3_L4_axial_rotation	L2_L3_Flex_Ext	L2_L3_Lat_Bending	L2_L3_axial_rotation	L1_L2_Flex_Ext	L1_L2_Lat_Bending	L1_L2_axial_rotation	L1_T12_Flex_Ext	L1_T12_Lat_Bending	L1_T12_axial_rotation	Abs_r3	Abs_r2	Abs_r1	Abs_t1	Abs_t2	neck_flexion	neck_bending	neck_rotation	arm_flex_r	arm_add_r	arm_rot_r	elbow_flex_r	pro_sup_r	wrist_flex_r	wrist_dev_r	arm_flex_l	arm_add_l	arm_rot_l	elbow_flex_l	pro_sup_l	wrist_flex_l	wrist_dev_l
1.000000	0.851323	-4.592106	89.067901	0.203950	0.645292	0.653810	7.005126	2.125727	-8.132091	5.382793	0.093947	21.474465	4.726233	0.000000	7.094115	-2.986484	2.541751	3.335028	0.058207	25.048752	2.228760	0.000000	-0.093600	0.684716	-0.842111	-0.173825	0.910673	-0.894743	-0.153776	1.664819	-0.894743	-0.106976	1.664819	-0.736847	-0.086917	1.396273	-0.684215	-0.053483	1.060625	-0.631583	-0.668578	7.745646	-4.683569	0.000000	0.000000	25.803853	-4.521094	5.350572	15.997652	-17.643919	103.572232	13.267217	13.851940	-6.970350	-3.486240	8.829373	-14.209069	48.816789	35.075524	84.465918	-20.242733	-3.773666
1.016667	0.925182	-4.543579	89.259068	0.203778	0.645525	0.652928	6.806637	2.244447	-7.551898	5.027869	0.087753	21.399875	3.847790	0.000000	7.014513	-3.040115	3.103766	3.252729	0.056771	25.015159	1.723068	0.000000	-0.101457	0.694415	-0.864865	-0.188416	0.923573	-0.918919	-0.166684	1.688402	-0.918919	-0.115955	1.688402	-0.756756	-0.094213	1.416052	-0.702702	-0.057973	1.075649	-0.648648	-0.724698	7.855366	-4.810117	0.000000	0.000000	25.883917	-4.628616	5.482043	15.830330	-18.018755	107.995739	12.623223	8.612047	-6.571767	-3.971784	8.797193	-14.608939	49.912022	34.771049	85.225944	-21.591001	-4.379849
1.033333	1.017140	-4.490281	89.525557	0.203528	0.645797	0.651724	6.551024	2.386769	-6.905502	4.625279	0.080726	21.265137	2.795394	0.000000	6.916066	-3.108603	3.594878	3.175960	0.055431	25.003739	1.328507	0.000000	-0.107269	0.705970	-0.887694	-0.199209	0.938940	-0.943175	-0.176232	1.716495	-0.943175	-0.122598	1.716495	-0.776733	-0.099610	1.439614	-0.721252	-0.061293	1.093547	-0.665771	-0.766211	7.986074	-4.937090	0.000000	0.000000	25.988281	-4.803433	5.544139	15.474250	-18.324352	111.246296	12.124518	5.173348	-6.348330	-4.275602	8.898225	-14.928388	51.257982	34.440664	86.076780	-22.919059	-4.656160
1.050000	1.123323	-4.436558	89.798581	0.203257	0.646085	0.650276	6.261716	2.550589	-6.099691	4.202085	0.073340	21.068943	1.533123	0.000000	6.794211	-3.192727	3.935642	3.097331	0.054059	25.000809	1.057151	0.000000	-0.111600	0.719739	-0.911472	-0.207252	0.957253	-0.968439	-0.183347	1.749974	-0.968439	-0.127547	1.749974	-0.797538	-0.103632	1.467692	-0.740571	-0.063768	1.114876	-0.683604	-0.797146	8.141832	-5.069336	0.000000	0.000000	26.111539	-5.003740	5.675634	15.031059	-18.620977	113.195863	11.828147	3.235621	-6.287204	-4.487060	8.968065	-15.155524	52.400368	34.120202	86.960693	-24.166451	-4.754545
1.066667	1.237147	-4.359731	90.080871	0.202939	0.646414	0.648695	5.935832	2.717659	-5.341557	3.794618	0.066229	20.891985	0.333515	0.000000	6.638271	-3.284022	4.170014	3.032044	0.052919	25.004068	0.883489	0.000000	-0.117098	0.734888	-0.930826	-0.217463	0.977401	-0.989003	-0.192380	1.786806	-0.989003	-0.133831	1.786806	-0.814473	-0.108737	1.498583	-0.756296	-0.066910	1.138341	-0.698119	-0.836420	8.313199	-5.176975	0.000000	0.000000	26.222390	-5.280184	5.831899	14.455057	-18.901394	113.350364	11.791585	3.193095	-6.273997	-4.469332	9.100090	-15.301620	53.731316	33.708918	87.716641	-25.442041	-4.699937
1.083333	1.356991	-4.269613	90.327509	0.202693	0.646733	0.647083	5.594281	2.898101	-4.504765	3.406456	0.059454	20.705283	-0.945760	0.000000	6.455329	-3.390123	4.247047	2.972025	0.051872	25.024603	0.847837	0.000000	-0.122951	0.750086	-0.947928	-0.228332	0.997615	-1.007173	-0.201996	1.823759	-1.007173	-0.140521	1.823759	-0.829437	-0.114172	1.529576	-0.770191	-0.070254	1.161883	-0.710946	-0.878226	8.485125	-5.272089	0.000000	0.000000	26.325537	-5.576940	6.063174	13.791188	-19.150524	111.514125	12.010241	5.034497	-6.325467	-4.219925	9.145937	-15.372749	54.788949	33.279123	88.441716	-26.575077	-4.510715
1.100000	1.454394	-4.165607	90.481613	0.202578	0.647018	0.645552	5.267260	3.047573	-3.795431	3.091406	0.053955	20.591245	-1.952198	0.000000	6.243162	-3.483273	4.187301	2.913879	0.050857	25.039277	0.870186	0.000000	-0.129299	0.761661	-0.949637	-0.240120	1.013009	-1.008989	-0.212425	1.851902	-1.008989	-0.147775	1.851902	-0.830932	-0.120067	1.553179	-0.771580	-0.073881	1.179813	-0.712228	-0.923567	8.616061	-5.281597	0.000000	0.000000	26.410381	-5.868404	6.352829	13.048537	-19.390280	107.681499	12.501270	8.446037	-6.434947	-3.748671	9.154337	-15.399288	55.833670	32.746372	88.788562	-27.720166	-4.573136
1.116667	1.479401	-4.045699	90.519957	0.202824	0.647287	0.644167	4.957736	3.133925	-3.067134	2.844686	0.049649	20.517069	-2.873818	0.000000	6.001452	-3.524042	3.964352	2.853595	0.049805	25.045760	0.988159	0.000000	-0.135229	0.760169	-0.944987	-0.251133	1.011025	-1.004049	-0.222167	1.848276	-1.004049	-0.154553	1.848276	-0.826864	-0.125573	1.550137	-0.767802	-0.077270	1.177502	-0.708741	-0.965925	8.599188	-5.255737	0.000000	0.000000	26.432916	-6.044794	6.704844	12.800492	-19.211986	108.114538	12.154940	8.028735	-6.139343	-3.954320	9.028661	-15.447329	56.553301	32.202968	88.949148	-28.806421	-4.829427
1.133333	1.478085	-3.918684	90.467013	0.203226	0.647474	0.643025	4.682007	3.187669	-2.472045	2.671502	0.046627	20.500809	-3.539520	0.000000	5.748592	-3.546668	3.726525	2.783810	0.048587	25.067974	1.089045	0.000000	-0.141739	0.753789	-0.926216	-0.263224	1.002540	-0.984104	-0.232864	1.832763	-0.984104	-0.161994	1.832763	-0.810439	-0.131619	1.537127	-0.752550	-0.080990	1.167619	-0.694662	-1.012430	8.527014	-5.151334	0.000000	0.000000	26.438233	-6.182585	7.089486	12.630764	-19.045106	107.629294	12.074889	7.827941	-5.950033	-4.226543	8.877794	-15.472930	57.171514	31.604274	88.941753	-29.931272	-5.263627
1.150000	1.439628	-3.802372	90.321935	0.203811	0.647539	0.642144	4.459031	3.203200	-1.924531	2.565295	0.044773	20.523949	-4.062346	0.000000	5.509360	-3.542143	3.400488	2.707038	0.047247	25.135159	1.273373	0.000000	-0.146602	0.741027	-0.894862	-0.272255	0.985567	-0.950791	-0.240853	1.801734	-0.950791	-0.167552	1.801734	-0.783004	-0.136135	1.511103	-0.727075	-0.083769	1.147852	-0.671146	-1.047165	8.382651	-4.976953	0.000000	0.000000	26.415933	-6.217310	7.512547	12.521978	-18.830224	106.824214	12.113850	7.569612	-5.775512	-4.581928	8.645846	-15.492355	57.392037	31.074817	88.866458	-30.912548	-5.764150
1.166667	1.367272	-3.705739	90.083334	0.204550	0.647469	0.641554	4.305208	3.180325	-1.448761	2.531029	0.044175	20.580178	-4.382966	0.000000	5.296127	-3.514513	2.996006	2.622757	0.045776	25.254862	1.558648	0.000000	-0.150220	0.723046	-0.850396	-0.278973	0.961651	-0.903546	-0.246796	1.758013	-0.903546	-0.171686	1.758013	-0.744096	-0.139494	1.474435	-0.690947	-0.085836	1.119998	-0.637797	-1.073005	8.179238	-4.729646	0.000000	0.000000	26.376675	-6.167034	7.974127	12.462444	-18.590632	105.759814	12.299448	7.231620	-5.635000	-5.058536	8.334998	-15.506913	57.125310	30.664097	88.677805	-31.714556	-6.350058
1.183333	1.274862	-3.630914	89.798409	0.205372	0.647272	0.641242	4.206750	3.139561	-0.920897	2.528097	0.044124	20.632664	-4.730289	0.000000	5.116947	-3.466517	2.699416	2.531057	0.044175	25.370825	1.707262	0.000000	-0.152615	0.701987	-0.800949	-0.283421	0.933642	-0.851009	-0.250731	1.706810	-0.851009	-0.174423	1.706810	-0.700831	-0.141718	1.431491	-0.650771	-0.087204	1.087377	-0.600712	-1.090111	7.941013	-4.454640	0.000000	0.000000	26.298932	-6.008156	8.504666	12.434962	-18.318987	104.412292	12.577510	7.055790	-5.535064	-5.588818	7.941915	-15.512869	56.259679	30.417477	88.620099	-32.302314	-6.846239
1.200000	1.175253	-3.574608	89.490339	0.206221	0.646976	0.641181	4.158189	3.086516	-0.383207	2.551444	0.044531	20.668070	-5.063242	0.000000	4.967509	-3.407746	2.533455	2.430500	0.042420	25.474258	1.698845	0.000000	-0.154139	0.680338	-0.754994	-0.286251	0.904850	-0.802182	-0.253235	1.654174	-0.802182	-0.176165	1.654174	-0.660620	-0.143133	1.387345	-0.613433	-0.088075	1.053844	-0.566246	-1.100999	7.696120	-4.199053	0.000000	0.000000	26.162385	-5.771032	9.151887	12.466015	-18.089993	102.090342	13.150495	7.639012	-5.654834	-6.076371	7.465413	-15.502795	54.774647	30.324973	88.601897	-32.621760	-7.294565
1.216667	1.071380	-3.535187	89.164489	0.207105	0.646609	0.641334	4.144675	3.036144	0.330199	2.564845	0.044765	20.654098	-5.601104	0.000000	4.849612	-3.346180	2.344008	2.338324	0.040811	25.583029	1.726212	0.000000	-0.155066	0.658451	-0.707293	-0.287974	0.875740	-0.751499	-0.254758	1.600958	-0.751499	-0.177225	1.600958	-0.618881	-0.143995	1.342714	-0.574676	-0.088605	1.019941	-0.530470	-1.107623	7.448532	-3.933751	0.000000	0.000000	25.970477	-5.508536	9.860944	12.553565	-17.737218	100.528457	13.537930	7.990406	-5.664507	-6.541850	6.987577	-15.483119	52.980214	30.321155	88.580287	-32.774118	-7.705843
1.233333	0.965212	-3.512303	88.851023	0.207970	0.646192	0.641705	4.184132	2.974239	0.965962	2.613649	0.045617	20.661473	-6.023525	0.000000	4.771483	-3.281176	2.118674	2.269157	0.039604	25.698224	1.819732	0.000000	-0.155439	0.636515	-0.660330	-0.288665	0.846565	-0.701601	-0.255370	1.547622	-0.701601	-0.177651	1.547622	-0.577789	-0.144340	1.297981	-0.536518	-0.088818	0.985962	-0.495248	-1.110283	7.200384	-3.672558	0.000000	0.000000	25.733657	-5.235518	10.598175	12.646327	-17.255555	99.655069	13.668535	8.169248	-5.509372	-6.977581	6.567075	-15.459071	51.084082	30.389884	88.530561	-32.686665	-7.944456
1.250000	0.878664	-3.487653	88.592850	0.208716	0.645769	0.642209	4.226826	2.923228	1.526400	2.646669	0.046193	20.675828	-6.386131	0.000000	4.714564	-3.231431	1.871293	2.224411	0.038823	25.837091	2.017002	0.000000	-0.156939	0.617785	-0.626363	-0.291452	0.821654	-0.665511	-0.257835	1.502082	-0.665511	-0.179366	1.502082	-0.548068	-0.145734	1.259787	-0.508920	-0.089675	0.956949	-0.469772	-1.121000	6.988504	-3.483644	0.000000	0.000000	25.451896	-4.987777	11.378077	12.767094	-16.634943	99.593612	13.506989	8.297070	-5.239274	-7.252460	6.237626	-15.410052	49.323892	30.442712	88.490996	-32.528032	-8.101273
